<svg width="120" height="120" xmlns="http://www.w3.org/2000/svg" class="iconLeftSlogan">
 <defs>
  <linearGradient y2="0%" x2="100%" y1="0%" x1="0%" id="a35affbc-03e8-4e3d-81b3-654ad081ac4e" gradientTransform="rotate(25)">
   <stop stop-color="#E98C00" offset="0"/>
   <stop stop-color="#8F5BFE" offset="1"/>
  </linearGradient>
 </defs>
 <g>
  <title>Layer 1</title>
  <path id="svg_1" d="m0,0l119.49299,0l0,119.49299l-119.49299,0l0,-119.49299z" opacity="undefined" fill="#F3E9F1"/>
  <g transform="matrix(0.658855, 0, 0, 0.658855, 115.469, 112.21)" fill="url(#a35affbc-03e8-4e3d-81b3-654ad081ac4e)" id="fba1eef7-3531-4a5c-bca2-c40308d292ec">
   <path id="svg_2" d="m-113.574,-73.53451l37.895,0l0,6.315l-37.895,0l0,-6.315zm0,-18.948l37.895,0l0,6.315l-37.895,0l0,-6.315zm0,-18.947l37.895,0l0,6.315l-37.895,0l0,-6.315z"/>
   <path id="svg_3" d="m-44.1,-115.63951l-14.736,0l0,-10.528c0,-2.632 -1.578,-4.21 -4.211,-4.21l-63.159,0c-2.632,0 -4.21,1.578 -4.21,4.21l0,77.895c0,2.634 1.578,4.213 4.21,4.213l14.737,0l0,9.474c0,2.632 1.579,4.21 4.211,4.21l63.158,0c2.633,0 4.211,-1.578 4.211,-4.21l0,-76.844c0,-2.633 -1.578,-4.21 -4.211,-4.21m-80,63.158l0,-69.475c0,-1.316 0.789,-2.106 2.105,-2.106l54.737,0c1.316,0 2.105,0.79 2.105,2.106l0,69.475c0,1.315 -0.789,2.104 -2.105,2.104l-54.737,0c-1.316,0 -2.105,-0.789 -2.105,-2.104m77.894,13.683c0,1.316 -0.789,2.104 -2.104,2.104l-53.685,0c-1.316,0 -2.105,-0.787 -2.105,-2.104l0,-5.264l41.053,0c2.633,0 4.211,-1.578 4.211,-4.211l0,-59.998l10.526,0c1.315,0 2.104,0.788 2.104,2.104l0,67.369z"/>
  </g>
 </g>
</svg>
